RBDS001runT35_grf
version=1
nRows=12
nColumns=19
inDegrees=no
endheader
time	ground_force_r_vx	ground_force_r_vy	ground_force_r_vz	ground_force_r_px	ground_force_r_py	ground_force_r_pz	ground_torque_r_x	ground_torque_r_y	ground_torque_r_z	ground_force_l_vx	ground_force_l_vy	ground_force_l_vz	ground_force_l_px	ground_force_l_py	ground_force_l_pz	ground_torque_l_x	ground_torque_l_y	ground_torque_l_z
     22.50000000	      0.00000000	      0.00000000	      0.00000000	      0.00000000	      0.00000000	      0.00000000	      0.00000000	      0.00000000	      0.00000000	    141.30641815	   1194.49050027	    -16.03731157	      2.19880862	      0.00000000	      1.05277532	      0.86762297	      7.66328081	     -0.10819741
     22.50333333	      0.00000000	      0.00000000	      0.00000000	      0.00000000	      0.00000000	      0.00000000	      0.00000000	      0.00000000	      0.00000000	    153.11192298	   1151.09224671	    -19.36057979	      2.18733982	      0.00000000	      1.05334551	      0.95810778	      7.51878747	     -0.12696020
     22.50666667	      0.00000000	      0.00000000	      0.00000000	      0.00000000	      0.00000000	      0.00000000	      0.00000000	      0.00000000	      0.00000000	    163.57806055	   1105.22253381	    -22.71118607	      2.16926315	      0.00000000	      1.05191290	      1.04194995	      7.34004212	     -0.14666378
     22.51000000	      0.00000000	      0.00000000	      0.00000000	      0.00000000	      0.00000000	      0.00000000	      0.00000000	      0.00000000	      0.00000000	    172.55902809	   1057.05870775	    -26.02301704	      2.16242661	      0.00000000	      1.05443318	      1.11753556	      7.12854461	     -0.16711604
     22.51333333	      0.00000000	      0.00000000	      0.00000000	      0.00000000	      0.00000000	      0.00000000	      0.00000000	      0.00000000	      0.00000000	    179.93061972	   1006.80960433	    -29.23322859	      2.14325667	      0.00000000	      1.05643064	      1.18339481	      6.88547417	     -0.18814135
     22.51666667	      0.00000000	      0.00000000	      0.00000000	      0.00000000	      0.00000000	      0.00000000	      0.00000000	      0.00000000	      0.00000000	    185.59221479	    954.71391784	    -32.28185538	      2.14330515	      0.00000000	      1.05223209	      1.23864325	      6.61433249	     -0.20964858
     22.52000000	      0.00000000	      0.00000000	      0.00000000	      0.00000000	      0.00000000	      0.00000000	      0.00000000	      0.00000000	      0.00000000	    189.46926915	    901.04138314	    -35.11122487	      2.12535079	      0.00000000	      1.05697890	      1.28279891	      6.32024591	     -0.23159794
     22.52333333	      0.00000000	      0.00000000	      0.00000000	      0.00000000	      0.00000000	      0.00000000	      0.00000000	      0.00000000	      0.00000000	    191.51586124	    846.09527957	    -37.66691341	      2.12190090	      0.00000000	      1.05284183	      1.31545588	      6.00810815	     -0.25396274
     22.52666667	      0.00000000	      0.00000000	      0.00000000	      0.00000000	      0.00000000	      0.00000000	      0.00000000	      0.00000000	      0.00000000	    191.71665387	    790.21161309	    -39.89962067	      2.10263288	      0.00000000	      1.05808166	      1.33636595	      5.68289746	     -0.27675364
     22.53000000	      0.00000000	      0.00000000	      0.00000000	      0.00000000	      0.00000000	      0.00000000	      0.00000000	      0.00000000	      0.00000000	    190.09183199	    733.75749463	    -41.76519009	      2.09683220	      0.00000000	      1.05677881	      1.34534288	      5.34914491	     -0.29998720
     22.53333333	      0.00000000	      0.00000000	      0.00000000	      0.00000000	      0.00000000	      0.00000000	      0.00000000	      0.00000000	      0.00000000	    186.69874831	    677.13001512	    -43.22337447	      2.08397368	      0.00000000	      1.05140759	      1.34209174	      5.00992772	     -0.32363551
     22.53666667	      0.00000000	      0.00000000	      0.00000000	      0.00000000	      0.00000000	      0.00000000	      0.00000000	      0.00000000	      0.00000000	    181.62740583	    620.75084282	    -44.24122442	      2.06516330	      0.00000000	      1.06080217	      1.32619202	      4.66689471	     -0.34761880
